<svg xmlns="http://www.w3.org/2000/svg" viewBox="0 0 24 24" fill="none">
  <path d="M12 20V6m0 0a4 4 0 0 0-7.7 1.5A4 4 0 0 0 4.5 15 3.5 3.5 0 0 0 8 18.5c1.5 0 2.8-.9 4-2.1M12 6a4 4 0 0 1 7.7 1.5 4 4 0 0 1-.2 7.5 3.5 3.5 0 0 1-3.5 3.5c-1.5 0-2.8-.9-4-2.1M7.5 9c1.4.3 2.3 1.2 2.5 2.5M16.5 9c-1.4.3-2.3 1.2-2.5 2.5M7.8 15c1.2-.2 2.2.2 3 1M16.2 15c-1.2-.2-2.2.2-3 1" />
  <style>
    path {
      fill: none;
      stroke: #5b4bc4;
      stroke-width: 2;
      stroke-linecap: round;
      stroke-linejoin: round;
    }
    @media (prefers-color-scheme: dark) {
      path { stroke: #a99df5; }
    }
  </style>
</svg>
